<svg width="184" height="167" viewBox="0 0 184 167" fill="none" xmlns="http://www.w3.org/2000/svg">
<mask id="mask0_163_2284" style="mask-type:alpha" maskUnits="userSpaceOnUse" x="0" y="0" width="167" height="167">
<rect width="167" height="167" fill="#D9D9D9"/>
</mask>
<g mask="url(#mask0_163_2284)">
<path d="M174.251 191.886L171.065 203.974L103.032 230.307L97.1328 177.302L174.251 153.974V191.886Z" fill="#0A3EA5"/>
<path d="M111.159 13.5899C90.7402 6.52489 43.1822 9.4349 27.6712 12.8769C12.1612 16.3199 2.94819 11.7119 3.53419 40.2739C4.12019 68.8359 18.1622 141.805 18.1622 141.805L79.6422 177.29L141.645 161.062C141.645 161.062 144.076 116.749 142.737 91.6219C141.4 66.4949 134.379 21.6239 111.159 13.5899Z" fill="#3185FF"/>
<path d="M16.616 15.7549C28.194 19.7239 36.7329 50.2849 39.2509 88.4439C41.7689 126.603 44.6299 157.132 44.6299 157.132C44.6299 157.132 16.82 145.193 15.155 140.526C13.489 135.859 -0.726034 62.8579 0.417966 44.5719C1.56097 26.2849 2.98396 11.0809 16.616 15.7549Z" fill="#1755AF"/>
<path d="M134.796 88.4429C134.796 88.4429 189.191 109.925 196.774 122.31C204.356 134.695 200.334 155.698 200.334 155.698L161.631 161.838L122.799 124.832L134.796 88.4429Z" fill="#1755AF"/>
<path d="M139.591 122.308C155.785 129.782 175.894 143.857 178.73 157.002C181.566 170.147 176.667 212.768 176.667 212.768C176.667 212.768 172.751 218.008 164.227 219.397C155.703 220.786 145.99 216.114 145.99 216.114C145.99 216.114 140.923 186.464 137.583 171.99C134.244 157.516 105.788 134.209 105.788 134.209C105.788 134.209 110.518 120.593 121.4 120.422C132.282 120.248 123.397 114.834 139.591 122.308Z" fill="#1090D7"/>
<path d="M118.445 126.924C137.567 137.403 152.325 146.798 154.606 166.878C156.887 186.959 151.744 226.81 151.744 226.81C151.744 226.81 142.686 235.287 131.236 234.762C119.787 234.237 107.408 226.211 107.408 226.211C107.408 226.211 109.44 190.704 107.134 181.222C104.828 171.74 86.7881 168.74 74.2011 153.888C61.6141 139.037 57.389 129.209 74.281 124.274C91.173 119.338 99.324 116.445 118.445 126.924Z" fill="#01A4FE"/>
<path d="M109.794 28.896C110.31 35.685 113.21 36.23 111.875 39.865C109.95 45.106 104.322 49.085 105.635 52.54C106.949 55.995 109.686 60.399 108.378 65.513C107.361 69.489 103.791 74.832 98.712 76.262C93.633 77.691 91.315 75.275 89.195 77.691C87.074 80.107 82.079 76.962 83.813 72.938C85.547 68.914 87.986 68.741 87.087 64.167C86.188 59.594 83.487 54.128 83.358 52.341C83.229 50.555 86.713 49.597 87.081 47.222C87.245 46.166 90.053 50.003 95.543 44.863C101.032 39.723 109.794 28.896 109.794 28.896Z" fill="#114054"/>
<path d="M75.621 53.741C52.81 55.858 44.8251 68.184 45.9501 89.206C47.0751 110.228 56.9451 137.278 74.0641 146.36C91.1831 155.442 87.8531 135.777 105.976 132.209C124.099 128.641 135.049 128.132 135.049 128.132C135.049 128.132 132.428 101.731 127 86C121.572 70.268 115.325 50.058 75.621 53.741Z" fill="#01A4FE"/>
<path d="M112.183 63.2779C112.424 63.3389 112.699 63.3029 112.914 63.4289C113.228 63.6119 112.167 63.3719 111.848 63.1989C111.533 63.0279 110.771 63.0609 110.403 63.0239C109.017 62.8869 107.144 63.2329 105.858 63.6929C104.062 64.3359 102.657 65.2689 101.23 66.4379C100.543 67.0009 100.309 68.3089 99.3622 68.6479C97.8072 69.2039 96.1712 69.3559 94.6752 70.1119C89.3472 72.8029 94.7002 82.5569 98.3452 84.5369C105.403 88.3689 122.157 87.4339 122.715 76.5649C122.968 71.6399 122.551 68.7959 118.41 65.7169C117.128 64.7639 115.082 63.8169 113.474 63.7339C113.055 63.7129 112.52 63.4199 112.119 63.2879C111.848 63.1989 111.031 62.9439 111.306 63.0209C111.599 63.1019 111.887 63.2029 112.183 63.2779Z" fill="#F29F04"/>
<path d="M121.882 75.7191C123.859 74.6461 121.592 80.2641 122.289 82.4321C123.371 85.7941 124.682 89.5201 126.501 92.6491C131.63 101.473 141.908 112.382 139.534 123.37C136.183 138.888 110.591 140.245 102.191 128.219C97.562 121.591 95.82 114.043 97.912 106.143C98.791 102.821 100.003 98.8291 100.069 95.3761C100.113 93.0661 100.177 90.8091 100.221 88.5161C100.264 86.2501 99.12 84.0611 99.615 81.7681C99.987 80.0451 104.987 79.6881 106.375 79.4841C111.087 78.7911 117.32 78.1951 121.882 75.7191Z" fill="#F29F04"/>
<path d="M120.802 127.23C119.857 124.394 117.069 123.329 115.082 121.389C111.287 117.684 106.008 114.608 103.4 109.985C102.211 107.878 100.471 102.288 103.274 100.708C107.286 98.444 114.056 105.472 116.536 107.893C117.728 109.057 119.015 110.063 120.468 110.876C120.535 110.914 120.597 111.05 120.657 111.004C120.695 110.975 120.366 110.4 120.332 110.344C119.694 109.292 117.768 105.466 120.122 104.863C121.8 104.433 123.686 110.837 124.08 112.377C124.956 115.798 128.545 117.551 130.136 120.371C130.683 121.339 124.942 125.839 123.801 126.336C123.686 126.385 121.096 128.112 120.802 127.23Z" fill="#D89C9C"/>
<path d="M14.6819 123.839C22.8109 119.251 80.7849 135.574 80.7849 135.574L87.9789 230.294L75.9089 238.737C75.9089 238.737 22.8609 223.597 16.0269 214.039C9.19387 204.481 8.31488 192.051 7.63188 168.867C6.94888 145.684 5.40087 129.077 14.6819 123.839Z" fill="#1755AF"/>
<path d="M72.7518 236.391C65.8388 228.183 63.5658 208.97 62.8268 187.357C62.0878 165.744 60.3018 136.416 77.2248 135.729C94.1468 135.043 108 162.19 107.264 195.141C106.529 228.092 103.708 233.089 103.708 233.089C103.708 233.089 79.6648 244.599 72.7518 236.391Z" fill="#3185FF"/>
<path d="M103.847 56.6151C104.039 55.5841 131.592 56.8831 146.794 89.2421C159.554 116.404 155.756 134.671 141.102 134.973C126.449 135.275 116.261 123.466 116.261 123.466L126.486 110.073C126.486 110.073 130.595 111.467 130.482 105.879C130.369 100.291 124.815 91.778 125 90C125.185 88.222 122.5 74 122.5 71C117 61.5 103.654 57.6451 103.847 56.6151Z" fill="#01A4FE"/>
<path d="M113.812 66.4571C113.64 64.8801 114.907 63.5711 115.562 62.1361C120.636 51.0211 122.196 64.9401 120.554 68.8841C120.034 70.1331 113.913 67.3931 113.812 66.4571Z" fill="#F29F04"/>
<path d="M109.642 66.6189C109.324 67.5809 109.101 64.9809 108.929 64.4019C108.475 62.8689 105.787 57.4069 103.491 59.0089C102.143 59.9509 100.513 70.1739 101.899 70.9829C103.982 72.1989 106.788 69.3839 108.187 68.1229C109.019 67.3719 109.821 66.0789 109.642 66.6189Z" fill="#F29F04"/>
<path d="M108.337 126.187C109.468 122.796 112.801 121.522 115.176 119.203C119.714 114.773 122.299 115.167 125.417 109.638C126.838 107.119 127.934 97.5749 124.584 95.6849C119.786 92.9779 116.404 100.169 113.439 103.064C112.013 104.456 110.475 105.658 108.737 106.631C108.657 106.676 108.583 106.839 108.511 106.784C108.466 106.749 108.859 106.062 108.9 105.994C109.663 104.736 111.965 100.161 109.151 99.4399C107.144 98.9259 104.89 106.584 104.418 108.425C103.371 112.515 99.0791 114.612 97.1771 117.983C96.5231 119.141 103.388 124.521 104.752 125.115C104.888 125.176 107.985 127.241 108.337 126.187Z" fill="#F2BABA"/>
<path d="M55.417 59.9741C66.57 60.7021 66.0439 72.6291 67.3159 79.1341C68.5879 85.6391 64.919 88.1551 64.769 93.6651C64.619 99.1751 66.438 110.195 78.681 111.774C90.923 113.353 103.507 108.392 103.507 108.392L113.9 123.508C113.9 123.508 102.729 139.311 85.055 141.556C67.381 143.801 39.456 139.504 33.003 107.867C26.551 76.2291 49.744 59.6031 55.417 59.9741Z" fill="#01A4FE"/>
<path d="M132.395 133.301C133.006 132.364 134.303 134.605 134.865 135.572C136.184 137.839 135.822 141.272 134.975 143.64C132.261 151.228 123.373 154.49 121.306 162.217C120.098 166.732 123.589 175.769 121.455 179.083C119.961 181.403 116.549 182.602 114.05 181.432C110.514 179.777 109.598 173.891 109.462 170.506C109.074 160.853 113.584 153.371 119.845 146.641C122.552 143.732 126.189 141.469 128.346 138.118C128.983 137.13 128.995 136.01 128.879 134.889C128.842 134.527 128.067 134.166 128.348 133.934C128.83 133.536 130.872 132.981 131.573 133.025C131.657 133.03 132.044 133.84 132.395 133.301Z" fill="#F29F04"/>
<path d="M99.5012 11.241C105.67 12.281 110.101 20.044 109.898 27.384C109.644 36.571 101.875 50.076 93.0732 50.059C84.2712 50.043 78.6412 42.952 78.5612 35.823C78.4822 28.695 85.9192 8.95301 99.5012 11.241Z" fill="#114054"/>
<path d="M92.5201 42.7911C92.5201 42.7911 90.1241 50.5681 92.5571 57.3721C98.5171 64.6331 92.4311 63.8751 84.6901 63.7201C76.9491 63.5651 71.7471 56.8131 71.7471 56.8131C71.7471 56.8131 73.9491 53.1031 74.0851 45.9431C74.2251 38.7841 72.7811 32.2571 72.7811 32.2571L92.5201 42.7911Z" fill="#D89C9C"/>
<path d="M92.6869 11.06C103.236 14.287 105.156 26.423 100.975 36.059C96.5669 46.217 92.2229 47.624 89.5309 46.829C86.8399 46.033 68.8679 34.879 76.6829 17.76C80.8469 8.64198 88.9849 9.92798 92.6869 11.06Z" fill="#F2BABA"/>
<path d="M98.2541 33.6089C98.1391 34.0169 98.1051 34.5089 98.1741 34.9319C98.2381 35.3259 99.1961 36.7759 99.0111 37.0599C98.4071 37.3039 97.7061 37.3359 97.1001 37.1189" stroke="#114054" stroke-width="0.5113" stroke-miterlimit="10"/>
<path d="M103.601 18.277C102.41 24.835 91.3469 20.109 89.3069 24.853C87.2669 29.597 86.8519 31.14 83.4889 31.686C80.1259 32.232 77.319 33.86 78.693 38.336C80.067 42.812 82.051 48.569 78.198 52.051C74.345 55.533 68.003 59.829 70.039 64.289C72.075 68.749 68.5469 75.62 64.9539 74.428C59.4489 72.602 60.883 64.523 55.409 63.52C52.003 62.896 46.5829 59.426 50.3799 54.446C54.1769 49.466 59.848 48.727 60.391 42.168C60.934 35.61 56.7009 29.079 64.6789 22.405C69.9309 18.011 70.8959 20.521 73.5099 14.654C76.1239 8.786 77.8499 6.07399 82.5839 5.18699C87.3189 4.29999 106.081 4.61398 103.601 18.277Z" fill="#114054"/>
<path d="M79.0488 37.4651C81.2268 41.3741 84.8308 44.4681 89.0238 46.0301" stroke="#114054" stroke-width="0.5113" stroke-miterlimit="10"/>
<path d="M108.904 67.345C109.515 64.877 108.624 62.098 106.691 60.446" stroke="#1C40AF" stroke-width="0.5113" stroke-miterlimit="10"/>
<path d="M114.663 65.717C116.634 64.573 118.145 62.6591 118.802 60.4771" stroke="#1C40AF" stroke-width="0.5113" stroke-miterlimit="10"/>
<path d="M103.659 60.4651C103.86 63.3171 102.943 66.2331 101.146 68.4561" stroke="#1C40AF" stroke-width="0.5113" stroke-miterlimit="10"/>
<path d="M94.6698 74.248C91.8448 74.524 89.2478 76.474 88.1938 79.109" stroke="#1C40AF" stroke-width="0.5113" stroke-miterlimit="10"/>
<path d="M94.5598 76.478C92.5358 78.289 90.9477 80.585 89.9688 83.118" stroke="#1C40AF" stroke-width="0.5113" stroke-miterlimit="10"/>
<path d="M94.8091 73.0169C92.3971 72.5419 89.8532 72.7589 87.5562 73.6339" stroke="#1C40AF" stroke-width="0.5113" stroke-miterlimit="10"/>
<path d="M97.79 84.229C99.252 84.952 100.919 85.255 102.542 85.094" stroke="#1C40AF" stroke-width="0.5113" stroke-miterlimit="10"/>
<path d="M111.029 119.115C112.582 120.425 113.34 122.611 112.933 124.602" stroke="#1C40AF" stroke-width="0.5113" stroke-miterlimit="10"/>
<path d="M121.612 73.8809C122.572 75.6759 122.736 77.8779 122.052 79.7949C121.368 81.7119 119.847 83.3129 117.968 84.0949" stroke="#1C40AF" stroke-width="0.5113" stroke-miterlimit="10"/>
<path d="M123.049 95.7261C122.218 98.7151 120.707 101.512 118.662 103.844" stroke="#1C40AF" stroke-width="0.5113" stroke-miterlimit="10"/>
<path d="M126.038 96.9729C125.04 101.018 122.557 104.678 119.168 107.1" stroke="#1C40AF" stroke-width="0.5113" stroke-miterlimit="10"/>
<path d="M126.936 102.559C127.04 102.602 127.145 102.646 127.249 102.689C125.741 106.535 122.75 109.779 119.039 111.592" stroke="#1C40AF" stroke-width="0.5113" stroke-miterlimit="10"/>
</g>
</svg>
