<svg width="184" height="167" viewBox="0 0 184 167" fill="none" xmlns="http://www.w3.org/2000/svg">
<mask id="mask0_163_2231" style="mask-type:alpha" maskUnits="userSpaceOnUse" x="0" y="0" width="184" height="167">
<rect width="184" height="167" fill="#D9D9D9"/>
</mask>
<g mask="url(#mask0_163_2231)">
<path d="M189.251 191.886L186.065 203.974L118.032 230.307L112.133 177.302L189.251 153.974V191.886Z" fill="#0A3EA5"/>
<path d="M82.5916 10.2935C98.9692 10.0189 115.805 11.0654 125.832 14.5347C131.372 16.4515 136.01 20.5877 139.878 26.2056C143.746 31.8239 146.805 38.8697 149.2 46.4956C153.99 61.7484 156.072 79.1567 156.738 91.6753C157.405 104.193 157.133 121.517 156.693 135.734C156.473 142.837 156.211 149.156 156.005 153.7C155.901 155.971 155.812 157.799 155.748 159.058C155.723 159.557 155.701 159.966 155.684 160.279L94.7859 176.218L34.0583 141.167C34.038 141.061 34.0134 140.935 33.9861 140.792C33.8832 140.251 33.7322 139.454 33.5398 138.429C33.155 136.38 32.6046 133.419 31.9421 129.778C30.6173 122.495 28.8451 112.487 27.0544 101.588C23.4685 79.7624 19.8252 54.4507 19.5339 40.2534C19.2405 25.9506 21.444 20.5001 25.1306 17.981C27.0207 16.6895 29.4186 16.0761 32.4363 15.5806C35.3924 15.0952 38.9788 14.7207 42.8875 13.853C50.5487 12.1529 66.2405 10.5676 82.5916 10.2935Z" fill="#0062F0" stroke="white" stroke-width="2"/>
<path d="M23.9492 16.6052C25.6962 15.7152 28.0408 15.5862 31.292 16.7009C33.8625 17.5822 36.4108 20.0024 38.8311 23.9441C41.2377 27.8635 43.4394 33.1595 45.374 39.5671C49.2418 52.3774 51.997 69.4769 53.2529 88.5095C54.5124 107.596 55.8574 124.774 56.8877 137.18C57.4029 143.384 57.8397 148.394 58.1475 151.854C58.2852 153.403 58.3969 154.641 58.4785 155.536C57.7491 155.214 56.7908 154.79 55.6709 154.283C53.0445 153.094 49.5284 151.461 45.9629 149.684C42.3929 147.905 38.7939 145.992 35.9932 144.242C34.591 143.366 33.4118 142.544 32.543 141.814C31.631 141.048 31.2069 140.499 31.0967 140.19C30.9147 139.68 30.5242 138.101 29.9727 135.597C29.4287 133.128 28.7434 129.829 27.9697 125.94C26.4224 118.163 24.5267 108.038 22.7188 97.4871C20.9106 86.9352 19.1914 75.9658 17.9961 66.4978C16.8721 57.5944 16.2218 50.0928 16.375 45.5115L16.416 44.6345C16.991 35.4356 17.6317 27.2458 19.7617 21.9246C20.8178 19.2863 22.1842 17.5046 23.9492 16.6052Z" fill="#0062F0" stroke="white" stroke-width="2"/>
<path d="M151.771 90.3159C153.269 90.926 155.419 91.8119 158.023 92.9136C163.233 95.1174 170.256 98.1841 177.512 101.635C184.771 105.088 192.247 108.917 198.37 112.647C201.432 114.512 204.141 116.343 206.309 118.08C208.49 119.827 210.063 121.431 210.921 122.832C214.561 128.777 215.455 136.89 215.397 143.64C215.369 146.994 215.106 149.969 214.851 152.104C214.723 153.171 214.597 154.027 214.504 154.614C214.492 154.687 214.479 154.757 214.469 154.822L176.962 160.772L138.946 124.544L150.411 89.7671C150.773 89.9127 151.229 90.0956 151.771 90.3159Z" fill="#0062F0" stroke="white" stroke-width="2"/>
<path d="M143.858 119.432C144.096 119.342 144.554 119.256 146.13 119.784C147.685 120.305 150.118 121.345 154.172 123.216C162.205 126.924 171.205 132.268 178.534 138.3C185.905 144.368 191.41 150.989 192.753 157.213C193.436 160.38 193.665 165.41 193.604 171.25C193.544 177.067 193.199 183.605 192.765 189.744C192.33 195.881 191.808 201.61 191.394 205.805C191.186 207.902 191.006 209.616 190.878 210.804C190.814 211.398 190.763 211.861 190.728 212.175C190.72 212.246 190.712 212.309 190.706 212.364C190.596 212.493 190.43 212.681 190.206 212.911C189.74 213.388 189.027 214.048 188.057 214.752C186.117 216.16 183.15 217.744 179.066 218.41C175.016 219.07 170.622 218.293 167.186 217.315C165.478 216.829 164.031 216.3 163.012 215.893C162.537 215.704 162.155 215.541 161.886 215.422C161.851 215.218 161.805 214.956 161.751 214.641C161.606 213.801 161.395 212.586 161.131 211.083C160.603 208.075 159.865 203.914 159.022 199.3C157.338 190.079 155.233 179.027 153.558 171.765C152.675 167.94 150.168 163.634 147.009 159.384C143.833 155.113 139.929 150.805 136.146 146.969C132.36 143.131 128.681 139.75 125.95 137.329C124.584 136.118 123.454 135.146 122.664 134.476C122.396 134.248 122.166 134.056 121.98 133.901C122.124 133.552 122.328 133.075 122.599 132.511C123.193 131.272 124.093 129.624 125.316 127.976C127.703 124.76 131.202 121.698 135.952 121.438L136.416 121.422C139.217 121.378 140.844 120.994 141.956 120.508C142.511 120.266 142.91 120.01 143.218 119.807C143.544 119.592 143.693 119.495 143.858 119.432Z" fill="#01A4FE" stroke="white" stroke-width="2"/>
<path d="M110.532 120.818C116.844 120.789 123.493 122.611 132.964 127.802C152.131 138.305 166.397 147.482 168.613 166.991C169.741 176.924 169.035 191.82 168.034 204.295C167.534 210.519 166.964 216.117 166.518 220.16C166.295 222.181 166.104 223.813 165.968 224.939C165.9 225.502 165.846 225.938 165.809 226.233C165.806 226.26 165.801 226.287 165.798 226.311C165.763 226.342 165.725 226.377 165.683 226.413C165.426 226.633 165.041 226.951 164.542 227.332C163.545 228.095 162.095 229.111 160.298 230.109C156.692 232.113 151.753 234.014 146.282 233.763C140.747 233.51 134.927 231.433 130.445 229.381C128.214 228.359 126.335 227.354 125.015 226.604C124.356 226.23 123.836 225.919 123.484 225.704C123.469 225.694 123.454 225.685 123.439 225.676C123.452 225.428 123.47 225.107 123.49 224.719C123.541 223.727 123.612 222.3 123.689 220.559C123.844 217.077 124.025 212.334 124.135 207.294C124.245 202.255 124.283 196.909 124.149 192.223C124.015 187.566 123.71 183.471 123.106 180.986C122.458 178.322 120.719 176.186 118.426 174.272C116.142 172.365 113.205 170.596 110.035 168.71C103.646 164.908 96.134 160.522 89.9644 153.242C86.83 149.544 84.2428 146.189 82.3794 143.165C80.5088 140.129 79.4174 137.505 79.1812 135.259C78.9511 133.069 79.5267 131.211 81.0913 129.59C82.7 127.923 85.412 126.446 89.561 125.234C98.0594 122.751 104.165 120.848 110.532 120.818Z" fill="#01A4FE" stroke="white" stroke-width="2"/>
<path d="M124.794 28.896C125.31 35.685 128.21 36.23 126.875 39.865C124.95 45.106 119.322 49.085 120.635 52.54C121.949 55.995 124.686 60.399 123.378 65.513C122.361 69.489 118.791 74.832 113.712 76.262C108.633 77.691 106.315 75.275 104.195 77.691C102.074 80.107 97.079 76.962 98.813 72.938C100.547 68.914 102.986 68.741 102.087 64.167C101.188 59.594 98.487 54.128 98.358 52.341C98.229 50.555 101.713 49.597 102.081 47.222C102.245 46.166 105.053 50.003 110.543 44.863C116.032 39.723 124.794 28.896 124.794 28.896Z" fill="#114054"/>
<path d="M90.7134 54.7371C110.4 52.9109 120.885 57.0438 127.143 63.3289C133.484 69.6977 135.673 78.3999 138.43 86.3923C141.126 94.2059 143.785 104.68 145.774 113.224C146.767 117.492 147.591 121.269 148.167 123.979C148.454 125.334 148.68 126.422 148.833 127.171C148.836 127.183 148.838 127.196 148.84 127.208C148.591 127.225 148.303 127.244 147.976 127.27C146.655 127.375 144.708 127.551 142.195 127.839C137.168 128.415 129.873 129.439 120.783 131.228C111.308 133.094 107.38 139.241 103.879 143.383C102.104 145.483 100.523 146.977 98.4712 147.514C96.4416 148.045 93.7119 147.693 89.5327 145.476C81.2505 141.082 74.6241 132.277 69.9204 121.849C65.2252 111.441 62.5049 99.5439 61.9487 89.1521C61.3923 78.754 63.1032 70.7037 67.5952 65.0027C72.0725 59.3205 79.4664 55.7809 90.7134 54.7371Z" fill="#01A4FE" stroke="white" stroke-width="2"/>
<path d="M125.183 73.2779C125.424 73.3389 125.699 73.3029 125.914 73.4289C126.228 73.6119 125.167 73.3719 124.848 73.1989C124.533 73.0279 123.771 73.0609 123.403 73.0239C122.017 72.8869 120.144 73.2329 118.858 73.6929C117.062 74.3359 115.657 75.2689 114.23 76.4379C113.543 77.0009 113.309 78.3089 112.362 78.6479C110.807 79.2039 109.171 79.3559 107.675 80.1119C102.347 82.8029 107.7 92.5569 111.345 94.5369C118.403 98.3689 135.157 97.4339 135.715 86.5649C135.968 81.6399 135.551 78.7959 131.41 75.7169C130.128 74.7639 128.082 73.8169 126.474 73.7339C126.055 73.7129 125.52 73.4199 125.119 73.2879C124.848 73.1989 124.031 72.9439 124.306 73.0209C124.599 73.1019 124.887 73.2029 125.183 73.2779Z" fill="#F29F04"/>
<path d="M134.882 85.7191C136.859 84.6461 134.592 90.2641 135.289 92.4321C136.371 95.7941 137.682 99.5201 139.501 102.649C144.63 111.473 154.908 122.382 152.534 133.37C149.183 148.888 123.591 150.245 115.191 138.219C110.562 131.591 108.82 124.043 110.912 116.143C111.791 112.821 113.003 108.829 113.069 105.376C113.113 103.066 113.177 100.809 113.221 98.5161C113.264 96.2501 112.12 94.0611 112.615 91.7681C112.987 90.0451 117.987 89.6881 119.375 89.4841C124.087 88.7911 130.32 88.1951 134.882 85.7191Z" fill="#F29F04"/>
<path d="M135.802 127.23C134.857 124.394 132.069 123.329 130.082 121.389C126.287 117.684 121.008 114.608 118.4 109.985C117.211 107.878 115.471 102.288 118.274 100.708C122.286 98.444 129.056 105.472 131.536 107.893C132.728 109.057 134.015 110.063 135.468 110.876C135.535 110.914 135.597 111.05 135.657 111.004C135.695 110.975 135.366 110.4 135.332 110.344C134.694 109.292 132.768 105.466 135.122 104.863C136.8 104.433 138.686 110.837 139.08 112.377C139.956 115.798 143.545 117.551 145.136 120.371C145.683 121.339 139.942 125.839 138.801 126.336C138.686 126.385 136.096 128.112 135.802 127.23Z" fill="#D89C9C"/>
<path d="M34.853 124.026C37.154 124.033 40.0369 124.288 43.3062 124.728C49.8407 125.607 57.8163 127.21 65.561 128.961C73.3011 130.712 80.7907 132.606 86.3462 134.063C89.1231 134.791 91.416 135.41 93.0142 135.846C93.7983 136.06 94.4156 136.23 94.8403 136.348L101.938 229.801L90.7271 237.643C90.6844 237.631 90.6387 237.618 90.5903 237.604C90.2017 237.491 89.63 237.325 88.8999 237.109C87.4393 236.677 85.3437 236.05 82.8081 235.267C77.736 233.701 70.9053 231.513 63.8638 229.029C56.818 226.543 49.5806 223.768 43.689 221.024C40.7423 219.652 38.1513 218.296 36.0962 216.999C34.1479 215.768 32.7603 214.639 31.9868 213.653L31.8403 213.458C25.2199 204.197 24.3171 192.115 23.6313 168.837C23.2883 157.192 22.7357 147.339 23.4165 139.712C24.1004 132.052 26.0007 127.064 30.1733 124.709C30.531 124.508 31.0992 124.328 31.9146 124.204C32.7182 124.081 33.7028 124.022 34.853 124.026Z" fill="#0062F0" stroke="white" stroke-width="2"/>
<path d="M92.2659 136.728C100.128 136.41 107.547 142.568 112.975 153.273C118.373 163.919 121.629 178.775 121.264 195.119C120.897 211.571 120.01 221.013 119.221 226.325C118.827 228.98 118.459 230.591 118.198 231.523C118.09 231.906 117.999 232.171 117.935 232.345C117.766 232.423 117.538 232.528 117.255 232.654C116.594 232.948 115.638 233.361 114.47 233.832C112.131 234.773 108.949 235.94 105.563 236.852C102.166 237.767 98.6172 238.41 95.5286 238.338C92.4194 238.266 89.9736 237.476 88.5168 235.747C85.2398 231.856 82.9776 225.226 81.4583 216.725C79.946 208.264 79.1953 198.112 78.8264 187.323C78.4554 176.471 77.8327 163.852 79.3909 153.85C80.1699 148.85 81.4796 144.617 83.5549 141.615C85.5963 138.662 88.3814 136.886 92.2659 136.728Z" fill="#0062F0" stroke="white" stroke-width="2"/>
<path d="M120.499 57.4006C121.21 57.4248 122.17 57.516 123.334 57.7131C126.094 58.1807 129.941 59.2311 134.259 61.3088C142.879 65.4574 153.393 73.7111 160.889 89.6672C167.231 103.167 169.384 114.313 168.239 122.033C167.669 125.88 166.29 128.819 164.267 130.807C162.256 132.783 159.527 133.902 156.082 133.973C149.031 134.118 143.021 131.349 138.741 128.5C136.606 127.079 134.917 125.648 133.763 124.574C133.258 124.104 132.857 123.702 132.567 123.402L141.898 111.18C141.936 111.185 141.974 111.193 142.013 111.198C142.485 111.251 143.158 111.257 143.853 111.017C144.573 110.768 145.278 110.266 145.776 109.383C146.261 108.522 146.513 107.367 146.482 105.859C146.448 104.186 145.711 102.6 144.749 101.191C143.781 99.7739 142.521 98.4465 141.313 97.2786C140.707 96.6925 140.104 96.1378 139.552 95.6292C138.994 95.1162 138.492 94.6552 138.069 94.2405C137.641 93.8207 137.329 93.4829 137.135 93.218C137.051 93.1037 137.006 93.0232 136.982 92.9749C137.191 90.8896 137.651 83.5312 131.601 72.6038C128.542 67.0799 125.481 63.1639 123.212 60.5022C122.645 59.8379 122.129 59.2519 121.677 58.7424C121.223 58.2294 120.842 57.8031 120.533 57.4417C120.521 57.428 120.51 57.414 120.499 57.4006Z" fill="#01A4FE" stroke="white" stroke-width="2"/>
<path d="M126.812 76.4571C126.64 74.8801 127.907 73.5711 128.562 72.1361C133.636 61.0211 135.196 74.9401 133.554 78.8841C133.034 80.1331 126.913 77.3931 126.812 76.4571Z" fill="#F29F04"/>
<path d="M122.642 76.6189C122.324 77.5809 122.101 74.9809 121.929 74.4019C121.475 72.8689 118.787 67.4069 116.491 69.0089C115.143 69.9509 113.513 80.1739 114.899 80.9829C116.982 82.1989 119.788 79.3839 121.187 78.1229C122.019 77.3719 122.821 76.0789 122.642 76.6189Z" fill="#F29F04"/>
<path d="M123.337 126.187C124.468 122.796 127.801 121.522 130.176 119.203C134.714 114.773 137.299 115.167 140.417 109.638C141.838 107.119 142.934 97.5749 139.584 95.6849C134.786 92.9779 131.404 100.169 128.439 103.064C127.013 104.456 125.475 105.658 123.737 106.631C123.657 106.676 123.583 106.839 123.511 106.784C123.466 106.749 123.859 106.062 123.9 105.994C124.663 104.736 126.965 100.161 124.151 99.4399C122.144 98.9259 119.89 106.584 119.418 108.425C118.371 112.515 114.079 114.612 112.177 117.983C111.523 119.141 118.388 124.521 119.752 125.115C119.888 125.176 122.985 127.241 123.337 126.187Z" fill="#F2BABA"/>
<path d="M70.3521 60.9719C72.9501 61.1415 74.7953 61.9538 76.1509 63.1184C77.5193 64.2941 78.4585 65.8899 79.1323 67.7317C79.8075 69.5772 80.1984 71.62 80.4995 73.6458C80.7933 75.6226 81.0115 77.6749 81.3345 79.3264C81.922 82.3313 81.3802 84.3897 80.6362 86.4299C79.8922 88.4703 78.8497 90.6762 78.769 93.6379C78.6913 96.4924 79.1184 100.819 81.1978 104.669C83.3061 108.573 87.0903 111.932 93.5532 112.766C99.8349 113.576 106.169 112.707 110.903 111.652C113.275 111.122 115.26 110.543 116.655 110.095C117.261 109.9 117.755 109.728 118.123 109.598L127.668 123.482C127.645 123.512 127.622 123.545 127.596 123.577C127.267 124.001 126.773 124.612 126.125 125.355C124.827 126.842 122.914 128.85 120.459 130.927C115.54 135.089 108.504 139.474 99.9292 140.564C91.2116 141.671 80.0203 141.154 70.2505 136.514C60.5321 131.898 52.1454 123.172 48.9829 107.667C45.8164 92.1398 49.9256 80.3521 55.48 72.4944C58.2634 68.5567 61.4098 65.6067 64.186 63.6721C65.5746 62.7045 66.8571 62 67.9419 61.552C69.0513 61.0939 69.8673 60.9402 70.3521 60.9719Z" fill="#01A4FE" stroke="white" stroke-width="2"/>
<path d="M145.395 143.301C146.006 142.364 147.303 144.605 147.865 145.572C149.184 147.839 148.822 151.272 147.975 153.64C145.261 161.228 136.373 164.49 134.306 172.217C133.098 176.732 136.589 185.769 134.455 189.083C132.961 191.403 129.549 192.602 127.05 191.432C123.514 189.777 122.598 183.891 122.462 180.506C122.074 170.853 126.584 163.371 132.845 156.641C135.552 153.732 139.189 151.469 141.346 148.118C141.983 147.13 141.995 146.01 141.879 144.889C141.842 144.527 141.067 144.166 141.348 143.934C141.83 143.536 143.872 142.981 144.573 143.025C144.657 143.03 145.044 143.84 145.395 143.301Z" fill="#F29F04"/>
<path d="M114.501 11.241C120.67 12.281 125.101 20.044 124.898 27.384C124.644 36.571 116.875 50.076 108.073 50.059C99.2709 50.043 93.6409 42.952 93.5609 35.823C93.4819 28.695 100.919 8.95301 114.501 11.241Z" fill="#114054"/>
<path d="M107.52 42.7911C107.52 42.7911 105.124 50.5681 107.557 57.3721C113.517 64.6331 107.431 63.8751 99.6901 63.7201C91.9491 63.5651 86.7471 56.8131 86.7471 56.8131C86.7471 56.8131 88.9491 53.1031 89.0851 45.9431C89.2251 38.7841 87.7811 32.2571 87.7811 32.2571L107.52 42.7911Z" fill="#D89C9C"/>
<path d="M107.687 11.06C118.236 14.287 120.156 26.423 115.975 36.059C111.567 46.217 107.223 47.624 104.531 46.829C101.84 46.033 83.8679 34.879 91.6829 17.76C95.8469 8.64198 103.985 9.92798 107.687 11.06Z" fill="#F2BABA"/>
<path d="M113.254 33.6089C113.139 34.0169 113.105 34.5089 113.174 34.9319C113.238 35.3259 114.196 36.7759 114.011 37.0599C113.407 37.3039 112.706 37.3359 112.1 37.1189" stroke="#114054" stroke-width="0.5113" stroke-miterlimit="10"/>
<path d="M118.601 18.277C117.41 24.835 106.347 20.109 104.307 24.853C102.267 29.597 101.852 31.14 98.4889 31.686C95.1259 32.232 92.319 33.86 93.693 38.336C95.067 42.812 97.051 48.569 93.198 52.051C89.345 55.533 83.003 59.829 85.039 64.289C87.075 68.749 83.5469 75.62 79.9539 74.428C74.4489 72.602 75.883 64.523 70.409 63.52C67.003 62.896 61.5829 59.426 65.3799 54.446C69.1769 49.466 74.848 48.727 75.391 42.168C75.934 35.61 71.7009 29.079 79.6789 22.405C84.9309 18.011 85.8959 20.521 88.5099 14.654C91.1239 8.786 92.8499 6.07399 97.5839 5.18699C102.319 4.29999 121.081 4.61398 118.601 18.277Z" fill="#114054"/>
<path d="M94.0488 37.4651C96.2268 41.3741 99.8308 44.4681 104.024 46.0301" stroke="#114054" stroke-width="0.5113" stroke-miterlimit="10"/>
<path d="M121.904 77.345C122.515 74.877 121.624 72.098 119.691 70.446" stroke="#1C40AF" stroke-width="0.5113" stroke-miterlimit="10"/>
<path d="M127.663 75.717C129.634 74.573 131.145 72.6591 131.802 70.4771" stroke="#1C40AF" stroke-width="0.5113" stroke-miterlimit="10"/>
<path d="M116.659 70.4651C116.86 73.3171 115.943 76.2331 114.146 78.4561" stroke="#1C40AF" stroke-width="0.5113" stroke-miterlimit="10"/>
<path d="M107.67 84.248C104.845 84.524 102.248 86.474 101.194 89.109" stroke="#1C40AF" stroke-width="0.5113" stroke-miterlimit="10"/>
<path d="M107.56 86.478C105.536 88.289 103.948 90.585 102.969 93.118" stroke="#1C40AF" stroke-width="0.5113" stroke-miterlimit="10"/>
<path d="M107.809 83.0169C105.397 82.5419 102.853 82.7589 100.556 83.6339" stroke="#1C40AF" stroke-width="0.5113" stroke-miterlimit="10"/>
<path d="M110.79 94.229C112.252 94.952 113.919 95.255 115.542 95.094" stroke="#1C40AF" stroke-width="0.5113" stroke-miterlimit="10"/>
<path d="M124.029 129.115C125.582 130.425 126.34 132.611 125.933 134.602" stroke="#1C40AF" stroke-width="0.5113" stroke-miterlimit="10"/>
<path d="M134.612 83.8809C135.572 85.6759 135.736 87.8779 135.052 89.7949C134.368 91.7119 132.847 93.3129 130.968 94.0949" stroke="#1C40AF" stroke-width="0.5113" stroke-miterlimit="10"/>
<path d="M138.049 95.7261C137.218 98.7151 135.707 101.512 133.662 103.844" stroke="#1C40AF" stroke-width="0.5113" stroke-miterlimit="10"/>
<path d="M141.038 96.9729C140.04 101.018 137.557 104.678 134.168 107.1" stroke="#1C40AF" stroke-width="0.5113" stroke-miterlimit="10"/>
<path d="M141.936 102.559C142.04 102.602 142.145 102.646 142.249 102.689C140.741 106.535 137.75 109.779 134.039 111.592" stroke="#1C40AF" stroke-width="0.5113" stroke-miterlimit="10"/>
</g>
</svg>
