<svg width="172" height="167" viewBox="0 0 172 167" fill="none" xmlns="http://www.w3.org/2000/svg">
<mask id="mask0_163_2233" style="mask-type:alpha" maskUnits="userSpaceOnUse" x="5" y="3" width="167" height="145">
<rect x="5" y="3" width="167" height="145" fill="#D9D9D9"/>
</mask>
<g mask="url(#mask0_163_2233)">
<path d="M58.778 41.2295L39.708 47.3095C39.708 47.3095 42.5826 85.0629 63.7388 100.886C84.8895 116.709 137.844 139.065 148.025 98.8874C153.548 77.1169 114.324 77.6327 97.839 73.606C62.9602 65.0873 58.778 41.2295 58.778 41.2295Z" fill="#BF5B89"/>
<path d="M119.092 26.8003C112.709 25.5158 105.515 31.4128 102.982 38.6219C99.8107 47.6455 102.338 63.6613 110.9 66.9192C119.46 70.1771 127.57 65.3795 130.299 58.4804C133.028 51.5812 133.144 29.6278 119.092 26.8003Z" fill="#114054"/>
<path d="M102.521 40.1301C99.494 46.5364 96.4727 45.9867 96.4179 50.0178C96.3391 55.8272 100.33 61.7878 97.7671 64.6581C95.2056 67.5272 90.9063 70.7884 90.2755 76.2464C89.786 80.4888 91.2666 87.0101 95.6722 90.2888C100.077 93.5675 103.228 92.0815 104.39 95.2179C105.552 98.3553 111.577 97.1562 111.389 92.5995C111.201 88.0428 108.894 86.9674 111.469 82.8575C114.044 78.7465 118.702 74.4395 119.493 72.7509C120.283 71.0633 117.253 68.8359 117.778 66.3905C118.011 65.3031 113.854 67.9883 110.431 60.9501C107.01 53.9119 102.521 40.1301 102.521 40.1301Z" fill="#114054"/>
<path d="M115.508 61.6858C115.508 61.6858 117.378 69.945 114.314 76.8124C107.554 83.8747 113.93 83.5702 121.974 84.0225C130.019 84.4748 135.951 77.8812 135.951 77.8812C135.951 77.8812 133.959 73.8567 134.386 66.4166C134.808 58.9765 136.824 52.3184 136.824 52.3184L115.508 61.6858Z" fill="#D89C9C"/>
<path d="M125.782 29.1583C114.33 28.3709 107.948 39.4511 108.427 50.3714C108.933 61.8831 112.632 64.8672 115.543 65.0961C118.455 65.3238 140.071 61.168 138.844 41.6227C138.188 31.2127 129.802 29.4353 125.782 29.1583Z" fill="#F2BABA"/>
<path d="M118.152 82.5888C129.23 83.7245 136.913 76.3774 136.913 76.3774C136.913 76.3774 152.665 78.8097 156.908 83.1495C162.925 89.3094 163.076 88.9524 165.609 107.541C168.138 126.128 165.483 148.47 163.724 157.238C161.964 166.007 163.176 178.339 163.176 178.339C163.176 178.339 145.83 190.96 112.315 188.707C78.801 186.455 82.6711 183.498 82.6711 183.498C82.6711 183.498 84.2021 166.923 83.0982 156.26C81.5048 136.542 80.8182 139.931 82.1772 116.851C85.6782 90.6641 92.4328 81.7358 102.039 77.8317C105.986 76.2274 114.312 76.8133 114.312 76.8133C114.312 76.8133 111.563 80.7359 118.152 82.5888Z" fill="#BF5B89"/>
<path d="M111.984 49.0022C111.943 49.4413 111.793 49.933 111.57 50.3174C111.36 50.6766 109.89 51.7301 109.964 52.075C110.46 52.5372 111.129 52.8285 111.8 52.8438" stroke="#114054" stroke-width="0.4859" stroke-miterlimit="10"/>
<path d="M129.359 59.9741C125.788 62.9637 121.135 64.6305 116.479 64.5878" stroke="#114054" stroke-width="0.4859" stroke-miterlimit="10"/>
<path d="M113.766 31.6286C112.483 38.4455 124.994 37.967 125.212 43.3373C125.429 48.7077 125.26 50.3613 128.325 52.143C131.39 53.9247 133.512 56.5519 130.512 60.3902C127.512 64.2296 123.442 69.0863 125.891 73.9048C128.34 78.7221 132.906 85.2565 129.268 88.8342C125.63 92.4108 126.503 100.403 130.438 100.58C136.468 100.853 138.079 92.4677 143.773 93.5289C147.316 94.1892 153.875 92.8335 152.036 86.5805C150.198 80.3275 144.96 77.5 146.873 70.9239C148.785 64.3479 155.328 59.5754 150.056 50.1204C146.586 43.8958 144.714 45.9765 144.356 39.3019C143.998 32.6262 143.329 29.3486 139.058 26.7258C134.789 24.1009 116.438 17.4274 113.766 31.6286Z" fill="#114054"/>
<path d="M59.5175 36.5371C59.938 40.8857 64.3983 45.3372 66.732 48.8832C69.1182 52.5145 69.9373 56.1141 70.2943 60.3631C70.44 62.0331 70.8397 67.4505 68.5914 68.1558C66.9335 68.677 65.6522 68.0912 65.1221 66.3938C63.9099 62.5325 64.1596 58.4653 61.8862 54.9478C59.2415 50.8587 53.9675 47.0511 53.3236 41.9676C52.7804 37.6803 58.2165 33.6361 60.1318 38.6747" fill="#F28704"/>
<path d="M33.4269 85.9842C33.3984 85.9415 35.2733 88.2762 35.892 89.1304C37.3299 91.118 37.5379 93.8853 37.7646 96.2124C38.1172 99.8339 36.2949 103.696 36.8118 107.241C37.3013 110.6 41.5996 116.149 43.723 118.747C45.2408 120.609 46.7772 124.411 49.769 123.273C52.5418 122.219 49.9935 116.018 49.2773 114.136C48.3487 111.694 47.2667 109.712 47.0105 107.092C46.2132 98.9085 50.8575 88.7417 44.138 81.8918C42.2884 80.005 38.2464 77.9539 35.7967 79.9557C34.7465 80.8142 33.3699 82.2784 33.2276 83.6922C33.14 84.5682 33.4751 86.0543 33.4269 85.9842Z" fill="#F28704"/>
<path d="M27.2221 80.3068C27.1169 80.2082 27.544 81.4566 27.6207 81.7961C27.8408 82.7729 27.8999 84.1692 27.5955 85.1624C26.6537 88.2309 24.9038 91.307 22.5175 93.5826C18.0857 97.8108 12.8785 102.318 10.1079 107.924C6.06263 116.108 7.53772 129.919 17.5699 132.646C20.6646 133.487 23.8426 131.592 23.2031 128.042C22.9501 126.635 22.1134 125.665 21.5298 124.427C19.7327 120.611 18.1295 116.696 19.4513 112.389C20.6832 108.373 24.2368 105.781 27.0655 102.892C30.6957 99.1851 33.4718 94.4992 33.9996 89.2537C34.3194 86.0757 33.1016 80.1118 29.639 78.8656C29.0542 78.6553 27.9711 78.1636 27.3907 78.6389C26.9746 78.9795 27.3086 80.3878 27.2221 80.3068Z" fill="#F28704"/>
<path d="M65.0362 12.6212C67.0873 13.4075 68.6062 16.166 68.7716 18.3025C68.9402 20.5453 69.9806 22.3927 70.9727 24.4679C72.2628 27.1652 67.4925 31.723 63.2347 33.1641C60.7522 33.4751 59.1982 33.7774 56.8536 33.1477C49.9677 31.2981 46.6265 21.3064 50.4769 15.4838C52.9584 11.732 57.3015 10.7354 63.042 11.9105C63.56 12.0167 65.0362 12.6212 65.0362 12.6212Z" fill="#F29F04"/>
<path d="M63.4932 9.64796C63.8185 8.51344 64.2543 3.75087 62.2218 3.08176C59.2979 2.12027 53.8038 9.89874 54.025 12.7624C54.0995 13.7491 60.5474 13.0548 61.3293 12.7756C61.9239 12.562 62.1046 12.7931 62.5733 12.3518C62.6357 12.2915 63.0957 11.0343 63.4932 9.64796Z" fill="#F29F04"/>
<path d="M65.2308 11.5447C65.8309 10.9697 70.2048 7.13799 71.0206 8.55614C71.7872 9.87793 70.2584 16.8066 69.0275 17.5184C66.396 21.0249 64.2847 14.013 64.1686 13.1161C64.1138 12.6792 65.1541 11.618 65.2308 11.5447Z" fill="#F29F04"/>
<path d="M50.5093 16.5406C49.5325 26.1961 40.6852 32.5772 35.5207 39.9965C29.6039 48.4977 27.0764 58.6602 26.0459 68.8227C25.3374 75.816 25.7546 83.0469 31.3364 87.861C32.4983 88.863 33.5156 90.0764 35.0455 90.5593C43.0824 93.101 47.3938 86.7779 50.2629 80.4023C53.2383 73.7879 53.5099 66.5132 55.7592 59.7192C58.1607 52.4543 60.6674 46.2561 60.4845 38.4601C60.4177 35.5022 62.5488 32.8313 62.1798 29.9194C61.6509 25.7307 58.0392 21.3689 55.1076 18.6651C54.5218 18.1241 52.9229 15.7511 51.9735 16.0248C50.9047 16.3315 50.828 17.4857 50.333 18.2654" fill="#F29F04"/>
<path d="M55.9531 43.8917C55.8293 45.0919 56.655 46.2034 57.0974 47.327C58.7773 51.5847 62.3069 55.2259 62.9727 59.787C63.5553 63.806 63.7699 76.4938 56.7207 70.6876C53.3763 67.9301 55.4723 62.643 53.8976 59.2822C52.0961 55.4504 48.0728 52.8255 46.9098 48.7846C45.9581 45.4588 46.6338 42.3355 50.0177 41.051C50.7295 40.7816 51.9757 40.6217 52.681 40.9886C54.9347 42.168 55.2654 43.6968 56.7821 45.5518" fill="#F29F04"/>
<path d="M44.0812 71.3969C43.9487 71.3093 43.5238 71.0848 43.6465 71.1866C44.954 72.2642 46.3973 73.1808 47.6424 74.3296C49.5512 76.0905 50.9398 79.0232 51.7326 81.4652C52.7478 84.5939 52.7905 87.7949 53.2548 90.9947C53.9009 95.4682 56.6989 101.493 59.5527 104.991C62.631 108.759 66.6566 111.481 69.6451 115.141C70.6603 116.388 70.8432 118.555 69.367 119.51C68.6081 120.002 66.6577 119.341 65.9229 119.078C62.4317 117.82 59.1267 115.633 55.5972 114.548C48.9708 112.51 50.8391 106.173 47.9666 101.412C43.4822 93.9723 30.997 91.9475 29.6336 82.5461C28.9678 77.9576 30.5502 71.9313 35.3741 70.1014C37.0989 69.4476 39.898 69.1213 41.5099 70.1419C42.1703 70.5591 44.8105 71.8722 44.0812 71.3969Z" fill="#F29F04"/>
<path d="M43.9914 71.1453C39.5202 65.05 31.8687 50.4535 31.6278 48.5634C31.3858 46.6732 32.8729 38.5202 36.5163 35.6894C40.1597 32.8586 43.1022 42.2523 44.9168 45.3087C46.7313 48.3651 51.3176 54.1232 51.3176 54.1232C51.3176 54.1232 51.6385 48.743 52.1696 46.8024C52.7007 44.8619 55.1702 45.6701 55.7024 49.6541C56.2346 53.638 56.0134 59.0237 57.5367 65.729C59.0599 72.4343 61.8196 75.7316 61.8196 75.7316L51.1632 81.3834L43.9914 71.1453Z" fill="#F2BABA"/>
<path d="M61.3654 63.5825L44.4658 74.3079C44.4658 74.3079 56.8382 110.091 81.3202 120.022C105.797 129.952 162.695 138.12 162.333 96.6752C162.144 74.217 124.337 84.6806 107.371 84.973C71.4731 85.595 61.3654 63.5825 61.3654 63.5825Z" fill="#E683B1"/>
<path d="M19.9824 110.928C18.1284 112.943 18.2095 116.121 19.1743 118.682C20.139 121.245 21.8309 123.467 22.972 125.955C23.536 127.186 23.9686 128.513 23.9149 129.865C23.8613 131.218 23.2524 132.602 22.1102 133.327C20.9669 134.052 19.2739 133.929 18.4307 132.87" stroke="#1C40AF" stroke-width="0.4859" stroke-miterlimit="10"/>
<path d="M20.4465 121.981C18.5366 124.106 15.1933 124.787 12.6045 123.577" stroke="#1C40AF" stroke-width="0.4859" stroke-miterlimit="10"/>
<path d="M18.6531 117.601C18.0081 118.598 16.8615 119.252 15.6755 119.3C14.4895 119.348 13.2937 118.789 12.5698 117.849" stroke="#1C40AF" stroke-width="0.4859" stroke-miterlimit="10"/>
<path d="M69.0259 116.235C69.6261 116.82 69.5724 117.876 69.0424 118.526C68.5124 119.175 67.6275 119.453 66.7898 119.432C65.9509 119.411 65.1438 119.13 64.3598 118.83C60.8686 117.493 57.5625 115.725 54.2651 113.963" stroke="#1C40AF" stroke-width="0.4859" stroke-miterlimit="10"/>
<path d="M38.4712 68.8938C40.7884 69.8378 42.811 71.4925 44.1952 73.5764" stroke="#1C40AF" stroke-width="0.4859" stroke-miterlimit="10"/>
<path d="M56.8008 47.5732C58.1105 50.2562 60.2076 52.4661 61.7944 54.9947C63.3812 57.5233 64.4588 60.6783 63.4316 63.4806" stroke="#1C40AF" stroke-width="0.4859" stroke-miterlimit="10"/>
<path d="M62.5949 32.5397C58.347 33.0194 53.9163 30.735 51.8433 26.9963" stroke="#1C40AF" stroke-width="0.4859" stroke-miterlimit="10"/>
<path d="M62.6366 4.11792C63.3243 7.11191 62.6563 10.3895 60.8516 12.8743" stroke="#1C40AF" stroke-width="0.4859" stroke-miterlimit="10"/>
<path d="M69.103 27.8581C68.8457 28.9981 67.6915 29.8654 66.5252 29.7953C65.3578 29.7263 64.3164 28.7287 64.1948 27.5657" stroke="#1C40AF" stroke-width="0.4859" stroke-miterlimit="10"/>
<path d="M70.8038 26.6897C70.864 26.9854 69.2541 28.49 69.0439 28.2995C68.93 28.1955 67.5096 26.4356 67.7407 26.1805C67.9608 25.9374 68.9979 26.2166 69.298 26.2615C69.759 26.3316 70.7282 26.3163 70.8038 26.6897Z" fill="#1C40AF"/>
<path d="M62.7766 21.1333C62.6737 21.6557 62.343 22.0313 62.0363 21.9711C61.7297 21.9108 61.5644 21.4388 61.6673 20.9154C61.7702 20.393 62.1009 20.0174 62.4076 20.0776C62.7142 20.1379 62.8785 20.6109 62.7766 21.1333Z" fill="#1C40AF"/>
<path d="M69.2303 21.4478C69.1273 21.9701 68.7966 22.3457 68.4899 22.2855C68.1833 22.2253 68.018 21.7533 68.1209 21.2298C68.2239 20.7075 68.5545 20.3319 68.8612 20.3921C69.1678 20.4523 69.3332 20.9254 69.2303 21.4478Z" fill="#1C40AF"/>
<path d="M63.2212 12.2805C64.808 12.5247 66.2601 13.5355 67.0376 14.9405" stroke="#1C40AF" stroke-width="0.4859" stroke-miterlimit="10"/>
<path d="M70.4558 9.22095C69.0672 10.7574 68.1145 12.6847 67.7378 14.7227" stroke="#1C40AF" stroke-width="0.4859" stroke-miterlimit="10"/>
</g>
</svg>
