<svg width="189" height="170" viewBox="0 0 189 170" fill="none" xmlns="http://www.w3.org/2000/svg">
<mask id="mask0_163_2232" style="mask-type:alpha" maskUnits="userSpaceOnUse" x="5" y="3" width="184" height="167">
<rect x="5" y="3" width="184" height="167" fill="#D9D9D9"/>
</mask>
<g mask="url(#mask0_163_2232)">
<path d="M58.0618 42.5342C58.2531 43.2356 58.5639 44.2361 59.0471 45.458C60.0134 47.9017 61.6696 51.2345 64.4368 54.833C69.9826 62.0449 79.9448 70.2646 97.6018 74.5771C101.783 75.5985 107.394 76.3306 113.268 77.1836C119.178 78.0418 125.398 79.0275 130.918 80.5566C136.461 82.092 141.161 84.1393 144.134 87.0352C145.606 88.4692 146.645 90.1019 147.167 91.9834C147.657 93.7483 147.707 95.7867 147.171 98.1621L147.056 98.6416C144.573 108.439 139.525 114.316 133.094 117.478C126.618 120.661 118.612 121.154 110.143 119.897C93.1939 117.383 74.8195 107.926 64.3381 100.085C54.0244 92.3712 48.0944 79.2369 44.7493 67.8818C43.0828 62.2249 42.071 57.0543 41.4758 53.2988C41.1784 51.422 40.9849 49.9006 40.8665 48.8506C40.83 48.527 40.8027 48.2481 40.7795 48.0176L58.0549 42.5098C58.0571 42.5179 58.0595 42.526 58.0618 42.5342Z" fill="#FFA2CD" stroke="white" stroke-width="2"/>
<path d="M111.867 164.696C117.462 164.557 122.934 164.879 127.012 165.237C129.049 165.416 130.735 165.603 131.91 165.746C132.28 165.791 132.6 165.832 132.864 165.867C132.851 166.333 132.833 166.972 132.81 167.765C132.756 169.556 132.675 172.134 132.564 175.277C132.341 181.562 131.997 190.107 131.513 199.148C131.029 208.19 130.406 217.721 129.624 225.979C128.84 234.264 127.904 241.188 126.812 245.065C124.581 252.972 122.25 259.1 120.481 263.245C119.596 265.317 118.851 266.893 118.329 267.948C118.069 268.475 117.865 268.873 117.726 269.136C117.657 269.268 117.604 269.366 117.569 269.43C117.551 269.462 117.538 269.486 117.53 269.501C117.525 269.509 117.522 269.515 117.52 269.518L117.518 269.522L117.398 269.737L117.392 269.983V269.986C117.392 269.988 117.391 269.99 117.391 269.994C117.391 270.001 117.39 270.012 117.39 270.026C117.389 270.055 117.389 270.099 117.387 270.157C117.384 270.273 117.378 270.446 117.371 270.672C117.357 271.126 117.335 271.796 117.303 272.659C117.24 274.385 117.138 276.885 116.986 279.977C116.681 286.162 116.173 294.714 115.362 304.181C114.555 313.558 112.08 323.01 109.796 330.137C108.656 333.696 107.566 336.666 106.762 338.745C106.36 339.783 106.03 340.599 105.801 341.154C105.763 341.246 105.726 341.331 105.694 341.409C105.337 341.414 104.842 341.418 104.236 341.416C102.921 341.409 101.087 341.372 99.0071 341.246C94.8224 340.992 89.7406 340.387 85.9055 339.009L85.8723 338.997L85.8381 338.987L84.343 338.556C77.0993 336.405 73.2816 334.332 71.2903 332.824C70.2326 332.022 69.7032 331.39 69.4456 331.001C69.3354 330.836 69.2755 330.713 69.2434 330.639C69.2469 330.577 69.2511 330.5 69.2561 330.409C69.2712 330.132 69.2933 329.725 69.3206 329.203C69.375 328.157 69.4515 326.647 69.5374 324.79C69.709 321.074 69.9201 315.964 70.0784 310.389C70.3942 299.266 70.5025 286.202 69.6477 278.691C68.4075 267.807 67.7207 261.006 68.0247 254.395C68.3279 247.801 69.6193 241.358 72.3987 231.218C78.1893 210.086 83.26 188.74 87.5491 173.836H87.55C88.4792 170.604 91.5578 168.362 96.092 166.894C100.592 165.437 106.259 164.835 111.867 164.696Z" fill="#01A4FE" stroke="white" stroke-width="2"/>
<path d="M140.945 164.6C143.911 164.553 146.531 164.797 148.655 165.402C150.779 166.007 152.328 166.949 153.273 168.238C157.732 174.32 160.794 179.298 163.149 184.834C165.506 190.376 167.173 196.519 168.798 204.948C170.417 213.34 170.87 222.984 171.614 231.884C171.984 236.314 172.428 240.555 173.129 244.312C173.829 248.059 174.797 251.395 176.252 253.982C179.058 258.973 182.392 262.227 185.622 266.227C188.772 270.129 192.019 274.944 195.052 283.197L195.345 284.006C198.51 292.884 202.116 302.606 204.93 310.107C206.337 313.858 207.547 317.054 208.405 319.313C208.834 320.442 209.174 321.337 209.408 321.95C209.476 322.129 209.535 322.285 209.584 322.415C209.559 322.453 209.533 322.495 209.504 322.538C209.268 322.887 208.916 323.393 208.458 324.012C207.543 325.251 206.206 326.937 204.527 328.722C201.148 332.313 196.472 336.209 191.119 337.766C185.568 339.38 180.881 340.186 177.587 340.588C175.941 340.789 174.644 340.89 173.762 340.94C173.48 340.956 173.241 340.963 173.046 340.97C173 340.876 172.948 340.77 172.891 340.654C172.605 340.071 172.186 339.218 171.654 338.138C170.589 335.977 169.072 332.904 167.261 329.258C163.64 321.967 158.846 312.379 154.155 303.199C149.51 294.108 146.698 287.826 144.231 283.248C141.72 278.588 139.449 275.457 135.74 272.491H135.741C134.062 271.147 131.844 268.622 129.299 265.235C126.77 261.868 123.963 257.712 121.105 253.165C115.746 244.637 110.229 234.77 106.045 226.208L105.227 224.514C101.016 215.687 98.4832 203.275 97.0073 192.993C96.2716 187.867 95.8017 183.298 95.5161 180.011C95.3734 178.368 95.2773 177.045 95.2163 176.135C95.199 175.877 95.1851 175.652 95.1733 175.462C95.5399 175.327 96.0461 175.141 96.6763 174.916C98.081 174.412 100.1 173.706 102.55 172.897C107.454 171.277 114.078 169.247 120.974 167.599C127.881 165.949 135.013 164.694 140.945 164.6Z" fill="#01A4FE" stroke="white" stroke-width="2"/>
<path d="M119.092 26.8003C112.709 25.5158 105.515 31.4128 102.982 38.6219C99.8107 47.6455 102.338 63.6613 110.9 66.9192C119.46 70.1771 127.57 65.3795 130.299 58.4804C133.028 51.5812 133.144 29.6278 119.092 26.8003Z" fill="#114054"/>
<path d="M102.521 40.1301C99.494 46.5364 96.4727 45.9867 96.4179 50.0178C96.3391 55.8272 100.33 61.7878 97.7671 64.6581C95.2056 67.5272 90.9063 70.7884 90.2755 76.2464C89.786 80.4888 91.2666 87.0101 95.6722 90.2888C100.077 93.5675 103.228 92.0815 104.39 95.2179C105.552 98.3553 111.577 97.1562 111.389 92.5995C111.201 88.0428 108.894 86.9674 111.469 82.8575C114.044 78.7465 118.702 74.4395 119.493 72.7509C120.283 71.0633 117.253 68.8359 117.778 66.3905C118.011 65.3031 113.854 67.9883 110.431 60.9501C107.01 53.9119 102.521 40.1301 102.521 40.1301Z" fill="#114054"/>
<path d="M115.508 61.6858C115.508 61.6858 117.378 69.945 114.314 76.8124C107.554 83.8747 113.93 83.5702 121.974 84.0225C130.019 84.4748 135.951 77.8812 135.951 77.8812C135.951 77.8812 133.959 73.8567 134.386 66.4166C134.808 58.9765 136.824 52.3184 136.824 52.3184L115.508 61.6858Z" fill="#D89C9C"/>
<path d="M125.782 29.1583C114.329 28.3709 107.948 39.4511 108.427 50.3714C108.933 61.8831 112.632 64.8672 115.543 65.0961C118.455 65.3238 140.071 61.168 138.844 41.6227C138.188 31.2127 129.802 29.4353 125.782 29.1583Z" fill="#F2BABA"/>
<path d="M137.43 77.4761C137.863 77.5501 138.489 77.6606 139.253 77.8071C140.782 78.1003 142.862 78.5355 145.071 79.104C147.282 79.6735 149.603 80.3726 151.619 81.188C153.537 81.9632 155.079 82.8051 156.014 83.6743L156.193 83.8481C159.238 86.9652 160.608 88.2634 161.627 91.0298C162.686 93.9051 163.344 98.3254 164.618 107.675C167.127 126.114 164.49 148.337 162.743 157.042C161.842 161.534 161.707 166.896 161.79 171.096C161.832 173.204 161.93 175.036 162.017 176.341C162.059 176.971 162.098 177.479 162.128 177.836C162.041 177.893 161.943 177.96 161.831 178.031C161.311 178.359 160.523 178.831 159.471 179.393C157.366 180.517 154.201 182.002 149.994 183.419C141.584 186.254 129 188.826 112.383 187.709C95.6224 186.583 88.3216 185.285 85.2278 184.304C84.4617 184.061 83.9951 183.851 83.7209 183.69C83.699 183.677 83.68 183.663 83.6614 183.651L83.6672 183.589V183.586C83.6674 183.584 83.6678 183.581 83.6682 183.577C83.669 183.568 83.6707 183.556 83.6721 183.54C83.675 183.507 83.6793 183.459 83.6848 183.397C83.6959 183.272 83.7117 183.087 83.7317 182.848C83.7716 182.371 83.8275 181.679 83.8909 180.815C84.0177 179.087 84.1752 176.672 84.2981 173.922C84.528 168.779 84.639 162.419 84.1907 157.188L84.093 156.158C83.2918 146.246 82.7296 142.254 82.5295 137.772C82.3314 133.332 82.4957 128.464 83.1741 116.939C84.9176 103.921 87.4586 95.2979 90.6936 89.4702C93.9076 83.6805 97.8198 80.626 102.415 78.7583C104.2 78.033 107.099 77.7743 109.677 77.7202C110.909 77.6943 112.028 77.7163 112.852 77.7446C112.76 78.1438 112.711 78.6113 112.768 79.1177C112.968 80.8982 114.384 82.5675 117.882 83.5513L117.965 83.5747L118.05 83.5835C123.836 84.1766 128.722 82.5535 132.144 80.7993C133.856 79.9214 135.211 79.0057 136.141 78.3071C136.606 77.9576 136.967 77.6611 137.213 77.4497C137.216 77.447 137.219 77.4436 137.222 77.4409C137.285 77.4515 137.355 77.4632 137.43 77.4761Z" fill="#FFA2CD" stroke="white" stroke-width="2"/>
<path d="M111.984 49.0022C111.943 49.4413 111.793 49.933 111.57 50.3174C111.36 50.6766 109.89 51.7301 109.964 52.075C110.46 52.5372 111.129 52.8285 111.8 52.8438" stroke="#114054" stroke-width="0.4859" stroke-miterlimit="10"/>
<path d="M129.359 59.9741C125.788 62.9637 121.135 64.6305 116.479 64.5878" stroke="#114054" stroke-width="0.4859" stroke-miterlimit="10"/>
<path d="M113.766 31.6286C112.483 38.4455 124.994 37.967 125.212 43.3373C125.43 48.7077 125.26 50.3613 128.325 52.143C131.39 53.9247 133.513 56.5519 130.512 60.3902C127.513 64.2296 123.442 69.0863 125.891 73.9048C128.34 78.7221 132.906 85.2565 129.268 88.8342C125.63 92.4108 126.503 100.403 130.439 100.58C136.468 100.853 138.079 92.4677 143.774 93.5289C147.316 94.1892 153.875 92.8335 152.036 86.5805C150.199 80.3275 144.961 77.5 146.873 70.9239C148.785 64.3479 155.328 59.5754 150.056 50.1204C146.586 43.8958 144.714 45.9765 144.356 39.3019C143.998 32.6262 143.329 29.3486 139.058 26.7258C134.789 24.1009 116.438 17.4274 113.766 31.6286Z" fill="#114054"/>
<path d="M59.5177 36.5371C59.9382 40.8857 64.3986 45.3372 66.7322 48.8832C69.1184 52.5145 69.9376 56.1141 70.2946 60.3631C70.4402 62.0331 70.8399 67.4505 68.5917 68.1558C66.9337 68.677 65.6524 68.0912 65.1224 66.3938C63.9101 62.5325 64.1599 58.4653 61.8864 54.9478C59.2418 50.8587 53.9678 47.0511 53.3238 41.9676C52.7807 37.6803 58.2167 33.6361 60.132 38.6747" fill="#F28704"/>
<path d="M33.4269 85.9842C33.3984 85.9415 35.2733 88.2762 35.892 89.1304C37.3299 91.118 37.5379 93.8853 37.7646 96.2124C38.1172 99.8339 36.2949 103.696 36.8118 107.241C37.3013 110.6 41.5996 116.149 43.723 118.747C45.2408 120.609 46.7772 124.411 49.769 123.273C52.5418 122.219 49.9935 116.018 49.2773 114.136C48.3487 111.694 47.2667 109.712 47.0105 107.092C46.2132 98.9085 50.8575 88.7417 44.138 81.8918C42.2884 80.005 38.2464 77.9539 35.7967 79.9557C34.7465 80.8142 33.3699 82.2784 33.2276 83.6922C33.14 84.5682 33.4751 86.0543 33.4269 85.9842Z" fill="#F28704"/>
<path d="M27.2221 80.3068C27.1169 80.2082 27.544 81.4566 27.6207 81.7961C27.8408 82.7729 27.8999 84.1692 27.5955 85.1624C26.6537 88.2309 24.9038 91.307 22.5175 93.5826C18.0857 97.8108 12.8785 102.318 10.1079 107.924C6.06263 116.108 7.53772 129.919 17.5699 132.646C20.6646 133.487 23.8426 131.592 23.2031 128.042C22.9501 126.635 22.1134 125.665 21.5298 124.427C19.7327 120.611 18.1295 116.696 19.4513 112.389C20.6832 108.373 24.2368 105.781 27.0655 102.892C30.6957 99.1851 33.4718 94.4992 33.9996 89.2537C34.3194 86.0757 33.1016 80.1118 29.639 78.8656C29.0542 78.6553 27.9711 78.1636 27.3907 78.6389C26.9746 78.9795 27.3086 80.3878 27.2221 80.3068Z" fill="#F28704"/>
<path d="M65.0359 12.6212C67.0871 13.4075 68.606 16.166 68.7713 18.3025C68.94 20.5453 69.9803 22.3927 70.9725 24.4679C72.2625 27.1652 67.4922 31.723 63.2345 33.1641C60.7519 33.4751 59.198 33.7774 56.8534 33.1477C49.9674 31.2981 46.6263 21.3064 50.4767 15.4838C52.9581 11.732 57.3013 10.7354 63.0418 11.9105C63.5598 12.0167 65.0359 12.6212 65.0359 12.6212Z" fill="#F29F04"/>
<path d="M63.493 9.64796C63.8182 8.51344 64.2541 3.75087 62.2216 3.08176C59.2977 2.12027 53.8036 9.89874 54.0248 12.7624C54.0993 13.7491 60.5472 13.0548 61.3291 12.7756C61.9237 12.562 62.1044 12.7931 62.5731 12.3518C62.6355 12.2915 63.0955 11.0343 63.493 9.64796Z" fill="#F29F04"/>
<path d="M65.2308 11.5447C65.8309 10.9697 70.2048 7.13799 71.0206 8.55614C71.7872 9.87793 70.2584 16.8066 69.0275 17.5184C66.396 21.0249 64.2847 14.013 64.1686 13.1161C64.1138 12.6792 65.1541 11.618 65.2308 11.5447Z" fill="#F29F04"/>
<path d="M50.5095 16.5406C49.5327 26.1961 40.6854 32.5772 35.5209 39.9965C29.6041 48.4977 27.0767 58.6602 26.0462 68.8227C25.3377 75.816 25.7549 83.0469 31.3366 87.861C32.4985 88.863 33.5159 90.0764 35.0457 90.5593C43.0826 93.101 47.394 86.7779 50.2632 80.4023C53.2386 73.7879 53.5101 66.5132 55.7594 59.7192C58.161 52.4543 60.6677 46.2561 60.4848 38.4601C60.418 35.5022 62.5491 32.8313 62.18 29.9194C61.6511 25.7307 58.0395 21.3689 55.1079 18.6651C54.522 18.1241 52.9232 15.7511 51.9737 16.0248C50.9049 16.3315 50.8282 17.4857 50.3332 18.2654" fill="#F29F04"/>
<path d="M55.9528 43.8917C55.8291 45.0919 56.6548 46.2034 57.0972 47.327C58.7771 51.5847 62.3066 55.2259 62.9724 59.787C63.555 63.806 63.7696 76.4938 56.7205 70.6876C53.3761 67.9301 55.4721 62.643 53.8973 59.2822C52.0959 55.4504 48.0725 52.8255 46.9095 48.7846C45.9579 45.4588 46.6336 42.3355 50.0174 41.051C50.7293 40.7816 51.9755 40.6217 52.6807 40.9886C54.9344 42.168 55.2651 43.6968 56.7819 45.5518" fill="#F29F04"/>
<path d="M44.0814 71.3969C43.9489 71.3093 43.524 71.0848 43.6467 71.1866C44.9542 72.2642 46.3976 73.1808 47.6427 74.3296C49.5514 76.0905 50.94 79.0232 51.7329 81.4652C52.748 84.5939 52.7907 87.7949 53.2551 90.9947C53.9012 95.4682 56.6991 101.493 59.5529 104.991C62.6313 108.759 66.6568 111.481 69.6453 115.141C70.6605 116.388 70.8434 118.555 69.3672 119.51C68.6083 120.002 66.6579 119.341 65.9231 119.078C62.432 117.82 59.1269 115.633 55.5974 114.548C48.971 112.51 50.8393 106.173 47.9669 101.412C43.4824 93.9723 30.9972 91.9475 29.6338 82.5461C28.968 77.9576 30.5504 71.9313 35.3743 70.1014C37.0991 69.4476 39.8982 69.1213 41.5102 70.1419C42.1705 70.5591 44.8108 71.8722 44.0814 71.3969Z" fill="#F29F04"/>
<path d="M43.9914 71.1453C39.5202 65.05 31.8687 50.4535 31.6278 48.5634C31.3858 46.6732 32.8729 38.5202 36.5163 35.6894C40.1597 32.8586 43.1022 42.2523 44.9168 45.3087C46.7313 48.3651 51.3176 54.1232 51.3176 54.1232C51.3176 54.1232 51.6385 48.743 52.1696 46.8024C52.7007 44.8619 55.1702 45.6701 55.7024 49.6541C56.2346 53.638 56.0134 59.0237 57.5367 65.729C59.0599 72.4343 61.8196 75.7316 61.8196 75.7316L51.1632 81.3834L43.9914 71.1453Z" fill="#F2BABA"/>
<path d="M61.0039 65.0269C61.3671 65.6566 61.9216 66.5452 62.6992 67.604C64.2548 69.7221 66.7041 72.5248 70.2949 75.3022C77.4914 80.8685 89.2154 86.288 107.389 85.9731C111.692 85.899 117.304 85.1804 123.202 84.5132C129.136 83.8419 135.402 83.216 141.13 83.2925C146.881 83.3693 151.947 84.1562 155.559 86.2017C157.347 87.2145 158.766 88.5285 159.749 90.2153C160.732 91.9034 161.311 94.0204 161.333 96.6841C161.421 106.79 158.032 113.757 152.615 118.449C147.161 123.173 139.542 125.684 131.031 126.621C114 128.495 93.8257 124.016 81.6963 119.095C69.7613 114.254 60.6887 103.057 54.5684 92.9243C51.5193 87.8764 49.227 83.1328 47.6973 79.6519C46.9328 77.9122 46.3589 76.4899 45.9775 75.5044C45.86 75.2006 45.7627 74.9373 45.6816 74.7202L60.9912 65.0044C60.9954 65.0118 60.9996 65.0194 61.0039 65.0269Z" fill="#FFA2CD" stroke="white" stroke-width="2"/>
<path d="M19.9824 110.928C18.1284 112.943 18.2095 116.121 19.1743 118.682C20.139 121.245 21.8309 123.467 22.972 125.955C23.536 127.186 23.9686 128.513 23.9149 129.865C23.8613 131.218 23.2524 132.602 22.1102 133.327C20.9669 134.052 19.2739 133.929 18.4307 132.87" stroke="#1C40AF" stroke-width="0.4859" stroke-miterlimit="10"/>
<path d="M20.4467 121.981C18.5369 124.106 15.1935 124.787 12.6047 123.577" stroke="#1C40AF" stroke-width="0.4859" stroke-miterlimit="10"/>
<path d="M18.6528 117.601C18.0078 118.598 16.8613 119.252 15.6753 119.3C14.4893 119.348 13.2934 118.789 12.5696 117.849" stroke="#1C40AF" stroke-width="0.4859" stroke-miterlimit="10"/>
<path d="M69.0262 116.235C69.6263 116.82 69.5727 117.876 69.0426 118.526C68.5126 119.175 67.6278 119.453 66.79 119.432C65.9512 119.411 65.1441 119.13 64.36 118.83C60.8688 117.493 57.5627 115.725 54.2654 113.963" stroke="#1C40AF" stroke-width="0.4859" stroke-miterlimit="10"/>
<path d="M38.4712 68.8938C40.7884 69.8378 42.811 71.4925 44.1952 73.5764" stroke="#1C40AF" stroke-width="0.4859" stroke-miterlimit="10"/>
<path d="M56.801 47.5732C58.1108 50.2562 60.2079 52.4661 61.7947 54.9947C63.3815 57.5233 64.459 60.6783 63.4318 63.4806" stroke="#1C40AF" stroke-width="0.4859" stroke-miterlimit="10"/>
<path d="M62.5949 32.5397C58.347 33.0194 53.9163 30.735 51.8433 26.9963" stroke="#1C40AF" stroke-width="0.4859" stroke-miterlimit="10"/>
<path d="M62.6366 4.11792C63.3243 7.11191 62.6563 10.3895 60.8516 12.8743" stroke="#1C40AF" stroke-width="0.4859" stroke-miterlimit="10"/>
<path d="M69.103 27.8581C68.8457 28.9981 67.6915 29.8654 66.5252 29.7953C65.3578 29.7263 64.3164 28.7287 64.1948 27.5657" stroke="#1C40AF" stroke-width="0.4859" stroke-miterlimit="10"/>
<path d="M70.8038 26.6897C70.864 26.9854 69.2541 28.49 69.0439 28.2995C68.93 28.1955 67.5096 26.4356 67.7407 26.1805C67.9608 25.9374 68.9979 26.2166 69.298 26.2615C69.759 26.3316 70.7282 26.3163 70.8038 26.6897Z" fill="#1C40AF"/>
<path d="M62.7769 21.1333C62.6739 21.6557 62.3432 22.0313 62.0366 21.9711C61.7299 21.9108 61.5646 21.4388 61.6676 20.9154C61.7705 20.393 62.1012 20.0174 62.4078 20.0776C62.7144 20.1379 62.8787 20.6109 62.7769 21.1333Z" fill="#1C40AF"/>
<path d="M69.23 21.4478C69.1271 21.9701 68.7963 22.3457 68.4897 22.2855C68.1831 22.2253 68.0177 21.7533 68.1207 21.2298C68.2236 20.7075 68.5543 20.3319 68.8609 20.3921C69.1675 20.4523 69.3329 20.9254 69.23 21.4478Z" fill="#1C40AF"/>
<path d="M63.2212 12.2805C64.808 12.5247 66.2601 13.5355 67.0376 14.9405" stroke="#1C40AF" stroke-width="0.4859" stroke-miterlimit="10"/>
<path d="M70.4556 9.22095C69.067 10.7574 68.1143 12.6847 67.7375 14.7227" stroke="#1C40AF" stroke-width="0.4859" stroke-miterlimit="10"/>
</g>
</svg>
